<mxfile host="app.diagrams.net" agent="Mozilla/5.0 (Macintosh; Intel Mac OS X 10_15_7) AppleWebKit/537.36 (KHTML, like Gecko) Chrome/133.0.0.0 Safari/537.36" version="26.0.16">
  <diagram name="第 1 页" id="v1EzYYzV_NWCGYMumPEh">
    <mxGraphModel dx="1026" dy="684" grid="1" gridSize="10" guides="1" tooltips="1" connect="1" arrows="1" fold="1" page="1" pageScale="1" pageWidth="827" pageHeight="1169" math="0" shadow="0">
      <root>
        <mxCell id="0" />
        <mxCell id="1" parent="0" />
        <mxCell id="FJsLPhMahQFC0DjH6bhX-1" value="" style="rounded=1;whiteSpace=wrap;html=1;fillColor=#dae8fc;strokeColor=#6c8ebf;" vertex="1" parent="1">
          <mxGeometry x="145" y="420" width="175" height="200" as="geometry" />
        </mxCell>
        <mxCell id="FJsLPhMahQFC0DjH6bhX-2" value="encoding&lt;div&gt;(INTSET_ENC_INT32)&lt;/div&gt;" style="rounded=0;whiteSpace=wrap;html=1;fillColor=#ffe6cc;strokeColor=#d79b00;" vertex="1" parent="1">
          <mxGeometry x="160" y="430" width="140" height="60" as="geometry" />
        </mxCell>
        <mxCell id="FJsLPhMahQFC0DjH6bhX-3" value="length&lt;div&gt;(4)&lt;/div&gt;" style="rounded=0;whiteSpace=wrap;html=1;fillColor=#ffe6cc;strokeColor=#d79b00;" vertex="1" parent="1">
          <mxGeometry x="160" y="490" width="140" height="60" as="geometry" />
        </mxCell>
        <mxCell id="FJsLPhMahQFC0DjH6bhX-9" style="edgeStyle=orthogonalEdgeStyle;rounded=0;orthogonalLoop=1;jettySize=auto;html=1;entryX=0;entryY=0.5;entryDx=0;entryDy=0;" edge="1" parent="1" source="FJsLPhMahQFC0DjH6bhX-4" target="FJsLPhMahQFC0DjH6bhX-5">
          <mxGeometry relative="1" as="geometry" />
        </mxCell>
        <mxCell id="FJsLPhMahQFC0DjH6bhX-4" value="contents" style="rounded=0;whiteSpace=wrap;html=1;fillColor=#ffe6cc;strokeColor=#d79b00;" vertex="1" parent="1">
          <mxGeometry x="160" y="550" width="140" height="60" as="geometry" />
        </mxCell>
        <mxCell id="FJsLPhMahQFC0DjH6bhX-5" value="-58929" style="rounded=0;whiteSpace=wrap;html=1;fillColor=#e1d5e7;strokeColor=#9673a6;" vertex="1" parent="1">
          <mxGeometry x="379" y="560" width="70" height="40" as="geometry" />
        </mxCell>
        <mxCell id="FJsLPhMahQFC0DjH6bhX-6" value="-234" style="rounded=0;whiteSpace=wrap;html=1;fillColor=#e1d5e7;strokeColor=#9673a6;" vertex="1" parent="1">
          <mxGeometry x="449" y="560" width="70" height="40" as="geometry" />
        </mxCell>
        <mxCell id="FJsLPhMahQFC0DjH6bhX-7" value="3" style="rounded=0;whiteSpace=wrap;html=1;fillColor=#e1d5e7;strokeColor=#9673a6;" vertex="1" parent="1">
          <mxGeometry x="519" y="560" width="70" height="40" as="geometry" />
        </mxCell>
        <mxCell id="FJsLPhMahQFC0DjH6bhX-8" value="3456" style="rounded=0;whiteSpace=wrap;html=1;fillColor=#e1d5e7;strokeColor=#9673a6;" vertex="1" parent="1">
          <mxGeometry x="589" y="560" width="70" height="40" as="geometry" />
        </mxCell>
      </root>
    </mxGraphModel>
  </diagram>
</mxfile>
